<svg t="1694623912093" class="icon" viewBox="0 0 1024 1024" version="1.1" xmlns="http://www.w3.org/2000/svg" p-id="5807" width="200" height="200"><path d="M748.2368 14.848v7.4752h-20.3776c-1.6384-6.3488-11.264-11.1616-23.04-11.1616H580.5056V0H359.424c-22.2208 0-40.1408 10.0352-40.1408 22.3232v204.8h-43.6224c-22.1184 0-40.1408 9.9328-40.1408 22.3232v193.7408c0 12.288 17.92 22.3232 40.1408 22.3232h26.9312v24.064c-11.8784 2.9696-20.0704 9.6256-20.0704 17.3056v26.2144c0 9.9328 14.5408 18.0224 32.4608 18.0224h11.1616V893.952c0 16.5888 19.7632 30.72 46.8992 35.328V1024h154.112v-94.72c27.136-4.7104 46.8992-18.7392 46.8992-35.328V551.1168h11.0592c17.92 0 32.4608-8.0896 32.4608-18.0224V506.88c0-7.68-8.2944-14.336-20.0704-17.3056v-24.064h26.9312c22.1184 0 40.1408-9.9328 40.1408-22.3232V249.4464c0-12.288-17.92-22.3232-40.1408-22.3232h-43.6224V108.032h124.3136c9.3184 0 17.3056-3.072 21.0944-7.4752h22.4256v11.1616H788.48V14.848h-40.2432zM637.5424 271.7696V420.864c-17.7152 0.9216-31.744 8.704-33.28 18.5344H302.3872c-1.7408-10.4448-17.5104-18.6368-36.6592-18.6368-1.1264 0-2.2528 0-3.3792 0.1024V271.7696c1.1264 0.1024 2.2528 0.1024 3.3792 0.1024 20.3776 0 36.864-9.216 36.864-20.48 0-0.6144-0.1024-1.2288-0.2048-1.8432H604.16c-0.1024 0.6144-0.2048 1.2288-0.2048 1.8432 0 10.6496 14.7456 19.3536 33.5872 20.3776z" p-id="5808" data-spm-anchor-id="a313x.search_index.0.i0.262d3a81tDGE8c" class="selected" fill="#515151"></path><path d="M612.6592 308.6336l-4.7104-4.9152 0.1024-0.1024-6.5536-5.7344h-20.1728l-4.9152 4.608-5.2224-4.608H550.912l-5.12 4.7104-0.1024-0.1024-5.9392 6.3488v32.768l4.8128 4.8128-4.8128 5.12v32.6656l4.8128 4.9152-0.2048 0.2048 6.5536 5.7344h20.1728l4.9152-4.608 5.2224 4.608h20.1728l5.0176-4.608 0.2048 0.2048 5.9392-6.5536v-32.6656l-4.8128-4.8128 4.8128-5.12v-32.8704z m-12.288 42.8032v31.744h-19.1488l-4.9152 4.608-5.2224-4.608h-14.5408l15.9744-22.4256v-10.752h-6.7584l-13.824 19.1488v-17.7152l-4.7104-4.8128 4.7104-5.12v-31.8464h19.1488l4.9152-4.608 5.2224 4.608h14.5408l-15.9744 22.4256v10.752h6.7584l13.824-19.1488v17.8176l4.7104 4.8128-4.7104 5.12zM527.5648 308.6336l-4.7104-4.9152 0.1024-0.1024-6.5536-5.7344h-20.1728l-4.9152 4.608-5.2224-4.608H465.92l-5.12 4.608-0.1024-0.1024-5.9392 6.3488v32.768l4.8128 4.8128-4.8128 5.12v32.6656l4.7104 5.0176-0.2048 0.2048 6.5536 5.7344h20.1728l4.9152-4.608 5.2224 4.608h20.1728l5.0176-4.608 0.2048 0.2048 5.9392-6.5536v-32.6656l-4.8128-4.8128 4.8128-5.12v-32.8704z m-12.288 42.8032v31.744h-19.1488l-4.9152 4.608-5.2224-4.608h-14.5408l15.9744-22.4256v-10.752h-6.7584l-13.824 19.1488v-17.7152l-4.7104-4.8128 4.7104-5.12v-31.8464h19.1488l4.9152-4.608 5.2224 4.608h14.5408l-15.9744 22.4256v10.752h6.7584l13.824-19.1488v17.8176l4.7104 4.8128-4.7104 5.12zM442.4704 308.6336l-4.7104-4.9152 0.1024-0.1024-6.5536-5.7344h-20.1728l-4.9152 4.608-5.2224-4.608h-20.1728l-5.12 4.7104-0.1024-0.1024-5.9392 6.3488v32.768l4.8128 4.8128-4.8128 5.12v32.6656l4.7104 4.9152-0.2048 0.2048 6.5536 5.7344h20.1728l4.9152-4.608 5.2224 4.608h20.1728l5.0176-4.608 0.2048 0.2048 5.9392-6.5536v-32.6656l-4.8128-4.8128 4.8128-5.12v-32.8704z m-12.288 42.8032v31.744h-19.1488l-4.9152 4.608-5.2224-4.608h-14.5408l15.9744-22.4256v-10.752h-6.7584l-13.824 19.1488v-17.7152l-4.7104-4.8128 4.7104-5.12v-31.8464h19.1488l4.9152-4.608 5.2224 4.608h14.5408L409.6 332.0832v10.752h6.7584l13.824-19.1488v17.8176l4.7104 4.8128-4.7104 5.12zM357.376 308.6336l-4.7104-4.9152 0.1024-0.1024-6.5536-5.7344h-20.1728l-4.9152 4.608-5.2224-4.608h-20.1728l-5.12 4.7104-0.1024-0.1024-5.9392 6.3488v32.768l4.8128 4.8128-4.8128 5.12v32.6656l4.7104 4.9152-0.2048 0.2048 6.5536 5.7344h20.1728l4.9152-4.608 5.2224 4.608h20.1728l5.0176-4.608 0.2048 0.2048 5.9392-6.5536v-32.6656l-4.8128-4.8128 4.8128-5.12v-32.8704z m-12.1856 42.8032v31.744h-19.1488l-4.9152 4.608-5.2224-4.608h-14.5408L317.44 360.8576v-10.752h-6.7584l-13.824 19.1488v-17.7152l-4.7104-4.8128 4.7104-5.12v-31.8464h19.1488l4.9152-4.608 5.2224 4.608h14.5408l-15.9744 22.4256v10.752h6.7584l13.824-19.1488v17.8176l4.7104 4.8128-4.8128 5.0176z" p-id="5809"></path></svg>